<svg id="visual" viewBox="0 0 900 600" width="900" height="600" xmlns="http://www.w3.org/2000/svg" xmlns:xlink="http://www.w3.org/1999/xlink" version="1.1"><rect x="0" y="0" width="900" height="600" fill="#6600FF"></rect><defs><linearGradient id="grad1_0" x1="33.3%" y1="0%" x2="100%" y2="100%"><stop offset="20%" stop-color="#6600ff" stop-opacity="1"></stop><stop offset="80%" stop-color="#6600ff" stop-opacity="1"></stop></linearGradient></defs><defs><linearGradient id="grad2_0" x1="0%" y1="0%" x2="66.7%" y2="100%"><stop offset="20%" stop-color="#6600ff" stop-opacity="1"></stop><stop offset="80%" stop-color="#6600ff" stop-opacity="1"></stop></linearGradient></defs><g transform="translate(900, 0)"><path d="M0 486.7C-69.8 485.9 -139.6 485.1 -186.3 449.7C-233 414.3 -256.6 344.3 -296.3 296.3C-335.9 248.2 -391.5 222.1 -425.9 176.4C-460.3 130.7 -473.5 65.3 -486.7 0L0 0Z" fill="#000000"></path></g><g transform="translate(0, 600)"><path d="M0 -486.7C64.4 -481.3 128.9 -475.8 186.3 -449.7C243.6 -423.6 294 -376.8 325.3 -325.3C356.6 -273.8 368.9 -217.6 392.6 -162.6C416.4 -107.7 451.6 -53.8 486.7 0L0 0Z" fill="#000000"></path></g></svg>